<svg width="36" height="36" xmlns="http://www.w3.org/2000/svg" xmlns:xlink="http://www.w3.org/1999/xlink" xml:space="preserve" overflow="hidden"><defs><clipPath id="clip0"><rect x="990" y="121" width="36" height="36"/></clipPath></defs><g clip-path="url(#clip0)" transform="translate(-990 -121)"><path d="M998.325 147.438C999.9 146.337 1001.46 145.494 1003.01 144.906 1004.56 144.319 1006.22 144.025 1008 144.025 1009.78 144.025 1011.44 144.319 1013.01 144.906 1014.57 145.494 1016.14 146.337 1017.71 147.438 1018.81 146.087 1019.59 144.725 1020.06 143.35 1020.52 141.975 1020.75 140.525 1020.75 139 1020.75 135.375 1019.53 132.344 1017.09 129.906 1014.66 127.469 1011.62 126.25 1008 126.25 1004.38 126.25 1001.34 127.469 998.906 129.906 996.469 132.344 995.25 135.375 995.25 139 995.25 140.525 995.487 141.975 995.963 143.35 996.438 144.725 997.225 146.087 998.325 147.438ZM1008 140.125C1006.55 140.125 1005.33 139.631 1004.34 138.644 1003.36 137.656 1002.86 136.437 1002.86 134.988 1002.86 133.538 1003.36 132.319 1004.34 131.331 1005.33 130.344 1006.55 129.85 1008 129.85 1009.45 129.85 1010.67 130.344 1011.66 131.331 1012.64 132.319 1013.14 133.538 1013.14 134.988 1013.14 136.437 1012.64 137.656 1011.66 138.644 1010.67 139.631 1009.45 140.125 1008 140.125ZM1008 154C1005.95 154 1004.01 153.606 1002.19 152.819 1000.36 152.031 998.769 150.956 997.406 149.594 996.044 148.231 994.969 146.637 994.181 144.812 993.394 142.988 993 141.05 993 139 993 136.925 993.394 134.981 994.181 133.169 994.969 131.356 996.044 129.769 997.406 128.406 998.769 127.044 1000.36 125.969 1002.19 125.181 1004.01 124.394 1005.95 124 1008 124 1010.08 124 1012.02 124.394 1013.83 125.181 1015.64 125.969 1017.23 127.044 1018.59 128.406 1019.96 129.769 1021.03 131.356 1021.82 133.169 1022.61 134.981 1023 136.925 1023 139 1023 141.05 1022.61 142.988 1021.82 144.812 1021.03 146.637 1019.96 148.231 1018.59 149.594 1017.23 150.956 1015.64 152.031 1013.83 152.819 1012.02 153.606 1010.08 154 1008 154ZM1008 151.75C1009.38 151.75 1010.72 151.55 1012.03 151.15 1013.34 150.75 1014.64 150.05 1015.91 149.05 1014.64 148.15 1013.34 147.462 1012.01 146.988 1010.69 146.513 1009.35 146.275 1008 146.275 1006.65 146.275 1005.31 146.513 1003.99 146.988 1002.66 147.462 1001.36 148.15 1000.09 149.05 1001.36 150.05 1002.66 150.75 1003.97 151.15 1005.28 151.55 1006.62 151.75 1008 151.75ZM1008 137.875C1008.85 137.875 1009.54 137.606 1010.08 137.069 1010.62 136.531 1010.89 135.837 1010.89 134.988 1010.89 134.138 1010.62 133.444 1010.08 132.906 1009.54 132.369 1008.85 132.1 1008 132.1 1007.15 132.1 1006.46 132.369 1005.92 132.906 1005.38 133.444 1005.11 134.138 1005.11 134.988 1005.11 135.837 1005.38 136.531 1005.92 137.069 1006.46 137.606 1007.15 137.875 1008 137.875Z" fill="#221C1A"/></g></svg>